<svg width="414" height="287" viewBox="0 0 414 287" fill="none" xmlns="http://www.w3.org/2000/svg">
<path d="M0 0H414V261.759C414 261.759 366 287 207 287C48 287 0 261.759 0 261.759V0Z" fill="url(#paint0_linear_604_1489)"/>
<path opacity="0.1" d="M-55 91C-55 149.542 -7.54219 197 51 197C109.542 197 157 149.542 157 91C157 32.4578 109.542 -15 51 -15C-7.54219 -15 -55 32.4578 -55 91ZM135.8 91C135.8 137.834 97.8337 175.8 51 175.8C4.16624 175.8 -33.8 137.834 -33.8 91C-33.8 44.1663 4.16624 6.2 51 6.2C97.8337 6.2 135.8 44.1663 135.8 91Z" fill="url(#paint1_linear_604_1489)"/>
<path opacity="0.1" d="M59 48.5C59 83.5701 87.4299 112 122.5 112C157.57 112 186 83.5701 186 48.5C186 13.4299 157.57 -15 122.5 -15C87.4299 -15 59 13.4299 59 48.5ZM173.3 48.5C173.3 76.5561 150.556 99.3 122.5 99.3C94.4439 99.3 71.7 76.5561 71.7 48.5C71.7 20.4439 94.4439 -2.3 122.5 -2.3C150.556 -2.3 173.3 20.4439 173.3 48.5Z" fill="url(#paint2_linear_604_1489)"/>
<path opacity="0.1" d="M212 20.5C212 43.9721 192.972 63 169.5 63C146.028 63 127 43.9721 127 20.5C127 -2.9721 146.028 -22 169.5 -22C192.972 -22 212 -2.9721 212 20.5ZM135.5 20.5C135.5 39.2777 150.722 54.5 169.5 54.5C188.278 54.5 203.5 39.2777 203.5 20.5C203.5 1.72232 188.278 -13.5 169.5 -13.5C150.722 -13.5 135.5 1.72232 135.5 20.5Z" fill="url(#paint3_linear_604_1489)"/>
<defs>
<linearGradient id="paint0_linear_604_1489" x1="-10.5" y1="-17.0712" x2="239.544" y2="393.953" gradientUnits="userSpaceOnUse">
<stop stop-color="#429690"/>
<stop offset="1" stop-color="#2A7C76"/>
</linearGradient>
<linearGradient id="paint1_linear_604_1489" x1="130.5" y1="-12.5909" x2="-97.1591" y2="215.068" gradientUnits="userSpaceOnUse">
<stop stop-color="white" stop-opacity="0"/>
<stop offset="1" stop-color="white" stop-opacity="0.7"/>
</linearGradient>
<linearGradient id="paint2_linear_604_1489" x1="170.125" y1="-13.5568" x2="33.7443" y2="122.824" gradientUnits="userSpaceOnUse">
<stop stop-color="white" stop-opacity="0"/>
<stop offset="1" stop-color="white" stop-opacity="0.7"/>
</linearGradient>
<linearGradient id="paint3_linear_604_1489" x1="137.625" y1="-21.0341" x2="228.903" y2="70.2443" gradientUnits="userSpaceOnUse">
<stop stop-color="white" stop-opacity="0"/>
<stop offset="1" stop-color="white" stop-opacity="0.7"/>
</linearGradient>
</defs>
</svg>
